<?xml version="1.0" encoding="utf-8"?>
<!-- Generator: Adobe Illustrator 28.1.0, SVG Export Plug-In . SVG Version: 6.00 Build 0)  -->
<svg version="1.1" id="Layer_1" xmlns="http://www.w3.org/2000/svg" xmlns:xlink="http://www.w3.org/1999/xlink" x="0px" y="0px"
	 viewBox="0 0 8225.4 1330" style="enable-background:new 0 0 8225.4 1330;" xml:space="preserve">
<style type="text/css">
	.st0{fill:#FF325D;}
	.st1{clip-path:url(#SVGID_00000164472421285630417490000009997259197055393159_);fill:#FF325D;}
	.st2{clip-path:url(#SVGID_00000150079829677066920500000014185235919207470721_);fill:#FF325D;}
	.st3{clip-path:url(#SVGID_00000054957988188461862250000012627341501575113657_);fill:#FF325D;}
	.st4{clip-path:url(#SVGID_00000008839468059657006530000018176644195454861993_);fill:#FF325D;}
</style>
<g transform="scale(11.27124225456601) translate(10, 10)">
	<g id="SvgjsG7571" transform="matrix(0.9036143678489994,0,0,0.9036143678489994,37.78915671692096,75.59036178148642)">
		<path d="M247.9,15.4c0,1.1,0.4,2,1.1,2.7c0.8,0.7,1.7,1.1,2.7,1.1c1.1,0,2-0.4,2.6-1.1c0.7-0.7,1-1.6,1-2.7c0-1.1-0.3-2-1-2.7
			c-0.7-0.7-1.6-1.1-2.7-1.1c-1.1,0-1.9,0.4-2.7,1.1C248.3,13.4,247.9,14.3,247.9,15.4z M246.8,4.9h1.2v7.5h0
			c0.3-0.6,0.9-1.1,1.5-1.4c0.7-0.3,1.4-0.5,2.2-0.5c1.4,0,2.6,0.5,3.5,1.4c0.9,0.9,1.4,2.1,1.4,3.5c0,1.4-0.5,2.6-1.4,3.5
			c-0.9,0.9-2.1,1.4-3.5,1.4c-0.8,0-1.5-0.2-2.2-0.5c-0.7-0.3-1.2-0.8-1.5-1.3h0V20h-1.2V4.9L246.8,4.9z M266.9,10.8l3.1,7.8l3-7.8
			h1.3l-4.7,12.1c-0.5,1.3-1.4,2-2.6,2c-0.4,0-0.8-0.1-1.2-0.2l0.1-1.1c0.4,0.1,0.8,0.2,1.1,0.2c0.3,0,0.6-0.1,0.8-0.3
			c0.2-0.2,0.5-0.6,0.7-1.2l0.9-2.2l-3.8-9.3L266.9,10.8L266.9,10.8z M303.2,5.5c2.1,0,3.8,0.6,5.1,2l-1,1c-0.4-0.5-1-0.9-1.8-1.3
			s-1.6-0.5-2.4-0.5c-1.8,0-3.2,0.6-4.3,1.8c-1.1,1.2-1.7,2.7-1.7,4.5c0,1.8,0.5,3.3,1.6,4.4c1.1,1.2,2.6,1.8,4.4,1.8
			c1.7,0,3-0.3,3.9-0.8v-4.8h-3.4v-1.2h4.7v6.7c-1.5,0.9-3.3,1.3-5.3,1.3c-2.1,0-3.9-0.7-5.2-2.1s-2-3.2-2.1-5.4
			c0-2.2,0.7-4,2.1-5.3C299.3,6.2,301,5.5,303.2,5.5z M319.7,4.9h1.2V20h-1.2V4.9z M339.1,14.6c0-0.8-0.3-1.6-0.9-2.1
			c-0.6-0.6-1.4-0.9-2.3-0.9c-0.9,0-1.6,0.3-2.2,0.9c-0.6,0.6-1,1.3-1.1,2.1H339.1z M336,10.5c1.3,0,2.3,0.4,3.1,1.2
			c0.8,0.8,1.2,1.9,1.2,3.2v0.7h-7.8c0.1,1,0.4,1.9,1,2.5c0.6,0.6,1.5,1,2.5,1c0.6,0,1.2-0.1,1.8-0.5c0.6-0.3,1-0.7,1.3-1.2l0.9,0.7
			c-0.9,1.3-2.2,2-4,2c-1.4,0-2.5-0.5-3.4-1.4c-0.8-0.9-1.3-2.1-1.3-3.5c0-1.4,0.4-2.5,1.3-3.5C333.5,11,334.7,10.5,336,10.5
			L336,10.5z M351.3,17.4c0,0.5,0.2,0.9,0.6,1.2s0.9,0.5,1.5,0.5c1.1,0,1.9-0.3,2.4-0.9c0.5-0.6,0.8-1.3,0.8-2.3v-0.6h-1.4
			c-1.2,0-2.2,0.2-2.9,0.6C351.7,16.3,351.3,16.8,351.3,17.4L351.3,17.4z M354.1,10.5c1.2,0,2.2,0.3,2.8,0.9
			c0.6,0.6,0.9,1.4,0.9,2.4v2.7c0,1.5,0.1,2.7,0.2,3.5h-1.1c-0.1-0.4-0.1-0.9-0.1-1.5h0c-0.7,1.2-1.7,1.7-3.2,1.7
			c-1,0-1.8-0.2-2.4-0.7s-0.9-1.2-0.9-2c0-1,0.4-1.8,1.3-2.3c0.9-0.5,2.1-0.8,3.7-0.8h1.5v-0.5c0-0.8-0.2-1.3-0.7-1.7
			c-0.5-0.4-1.1-0.6-1.9-0.6c-1.1,0-2,0.3-2.8,1l-0.7-0.8c0.4-0.4,1-0.8,1.6-1C352.8,10.6,353.4,10.5,354.1,10.5z M372.9,10.5
			c0.7,0,1.3,0.2,1.8,0.5s0.8,0.8,1,1.5c0.3-0.6,0.7-1.1,1.3-1.5s1.2-0.5,1.9-0.5c2.3,0,3.5,1.3,3.5,3.9V20h-1.2v-5.5
			c0-1.9-0.8-2.9-2.3-2.9c-0.9,0-1.6,0.3-2.1,0.9c-0.5,0.6-0.7,1.4-0.7,2.4V20h-1.2v-5.6c0-0.8-0.2-1.5-0.5-2
			c-0.3-0.5-0.8-0.8-1.5-0.8c-1,0-1.7,0.3-2.3,1c-0.6,0.7-0.9,1.6-0.9,2.8V20h-1.2v-6.7c0-0.5,0-1.3-0.1-2.5h1.2
			c0,1,0.1,1.5,0.1,1.6h0.1c0.3-0.6,0.7-1,1.3-1.4S372.2,10.5,372.9,10.5L372.9,10.5z M402.7,5.8V7h-4.8v13h-1.3V7h-4.8V5.8H402.7z
			 M419.4,14.6c0-0.8-0.3-1.6-0.9-2.1c-0.6-0.6-1.4-0.9-2.3-0.9c-0.9,0-1.6,0.3-2.2,0.9c-0.6,0.6-1,1.3-1.1,2.1H419.4L419.4,14.6z
			 M416.2,10.5c1.3,0,2.3,0.4,3.1,1.2c0.8,0.8,1.2,1.9,1.2,3.2v0.7h-7.8c0.1,1,0.4,1.9,1,2.5c0.6,0.6,1.5,1,2.5,1
			c0.6,0,1.2-0.1,1.8-0.5c0.6-0.3,1-0.7,1.3-1.2l0.9,0.7c-0.9,1.3-2.2,2-4,2c-1.4,0-2.5-0.5-3.4-1.4c-0.8-0.9-1.3-2.1-1.3-3.5
			c0-1.4,0.4-2.5,1.3-3.5C413.8,11,414.9,10.5,416.2,10.5L416.2,10.5z M435.1,10.5c1.3,0,2.5,0.5,3.4,1.6l-1,0.7
			c-0.8-0.8-1.6-1.2-2.5-1.2c-1,0-1.9,0.4-2.6,1.1c-0.7,0.7-1,1.6-1.1,2.7c0,1.1,0.3,2,1,2.7c0.7,0.7,1.6,1.1,2.6,1.1
			c1,0,1.8-0.4,2.5-1.3l0.9,0.8c-0.9,1.1-2,1.6-3.4,1.6c-1.4,0-2.6-0.5-3.5-1.4c-0.9-0.9-1.4-2.1-1.4-3.5c0-1.4,0.5-2.5,1.4-3.4
			S433.7,10.5,435.1,10.5z M448,4.9h1.2v7.5h0c0.3-0.6,0.7-1,1.3-1.4c0.6-0.3,1.2-0.5,1.9-0.5c2.3,0,3.5,1.3,3.5,3.9V20h-1.2v-5.5
			c0-2-0.8-2.9-2.3-2.9c-1,0-1.8,0.3-2.4,1c-0.6,0.7-0.9,1.6-0.9,2.7V20H448L448,4.9L448,4.9z"/>
	</g>
	<g id="SvgjsG7572" transform="matrix(1.9715226346733452,0,0,1.9715226346733452,-2.365826785569914,3.4468770975875263)">
		<path class="st0" d="M118.6,6c3.1,0,5.2,1.9,5.2,4.8c0,2.8-2,4.6-5.2,4.6h-2V20h-2.9V6H118.6z M118.4,12.8c1.4,0,2.4-0.6,2.4-2.1
			c0-1.5-1-2.1-2.4-2.1h-1.8v4.1H118.4L118.4,12.8z M130.7,6c4,0,7.1,3.1,7.1,6.9c0,4-3.1,7.1-7.1,7.1h-5V6H130.7z M130.7,17.2
			c2.7,0,4.1-1.9,4.1-4.3c0-2.2-1.4-4.2-4.1-4.2h-2.1v8.5H130.7z M148.6,8.7h-5.9v3.1h4.8v2.5h-4.8V20h-3V6h8.9V8.7z M150.7,20.1
			c-0.9,0-1.6-0.7-1.6-1.6c0-0.9,0.7-1.6,1.6-1.6c0.9,0,1.6,0.7,1.6,1.6C152.3,19.4,151.6,20.1,150.7,20.1z M157.3,5.9v2.4h-2.9V5.9
			H157.3z M157.3,9.6V21c0,2.1-1.3,3.1-3.1,3.1c-1.1,0-1.7-0.2-2.3-0.5v-2.8c0.5,0.2,0.9,0.4,1.5,0.4c0.9,0,1-0.7,1-1.1V9.6
			L157.3,9.6L157.3,9.6z M164.4,12.7c-0.3-0.7-0.8-1-1.3-1c-0.5,0-1,0.3-1,0.8c0,0.4,0.3,0.7,0.8,0.9l1.3,0.5c1.5,0.5,3,1.1,3,3.1
			c0,2.1-2.1,3.3-4.2,3.3c-1.9,0-3.7-1.1-4.1-2.9l2.3-0.7c0.3,0.7,0.8,1.4,1.9,1.4c0.7,0,1.3-0.5,1.3-1c0-0.3-0.2-0.6-0.9-0.9
			l-1.2-0.4c-2-0.7-3-1.8-3-3.2c0-1.9,1.7-3,3.7-3c2,0,3.3,1.1,3.9,2.7L164.4,12.7z"/>
	</g>
	<g id="SvgjsG7573" transform="matrix(1.0886183392591187,0,0,1.0886183392591187,110.56844002737739,-11.974801731850306)">
		<g>
			<g>
				<defs>
					<rect id="SVGID_1_" x="-247.1" y="-450.8" width="981.6" height="981.6"/>
				</defs>
				<clipPath id="SVGID_00000061467782200614796910000018390817625870622123_">
					<use xlink:href="#SVGID_1_"  style="overflow:visible;"/>
				</clipPath>
				<path style="clip-path:url(#SVGID_00000061467782200614796910000018390817625870622123_);fill:#FF325D;" d="M267.7,11h-48
					c-1.7,0-3,1.4-2.7,3.1l6.4,44.1c0.2,1.4,1.3,3,2.6,3.6l15.5,8.2c1.3,0.7,3.2,0.7,4.5,0l15.5-8.1c1.3-0.7,2.4-2.2,2.6-3.6
					l6.4-44.1C270.6,12.4,269.4,11,267.7,11 M262,57.9c-0.1,0.8-0.8,1.8-1.5,2.2L245,68.2c-0.7,0.4-1.9,0.4-2.6,0L226.9,60
					c-0.7-0.4-1.4-1.4-1.5-2.2L219,13.7c-0.1-0.4,0.2-0.7,0.7-0.7h48c0.5,0,0.8,0.4,0.7,0.8L262,57.9z"/>
			</g>
			<g>
				<defs>
					<rect id="SVGID_00000155847595277095118960000006254341178220434571_" x="-247.1" y="-450.8" width="981.6" height="981.6"/>
				</defs>
				<clipPath id="SVGID_00000047758803204895543490000003330282094875925647_">
					<use xlink:href="#SVGID_00000155847595277095118960000006254341178220434571_"  style="overflow:visible;"/>
				</clipPath>
				<path style="clip-path:url(#SVGID_00000047758803204895543490000003330282094875925647_);fill:#FF325D;" d="M236.4,28.3
					c-0.4-0.4-1-0.4-1.4,0l-8,8c-0.4,0.4-0.4,1,0,1.4l8,8c0.4,0.4,1,0.4,1.4,0c0.4-0.4,0.4-1,0-1.4l-7.3-7.3l7.3-7.3
					C236.8,29.3,236.8,28.7,236.4,28.3"/>
			</g>
			<g>
				<defs>
					<rect id="SVGID_00000070095606773459395250000002297564257748010417_" x="-247.1" y="-450.8" width="981.6" height="981.6"/>
				</defs>
				<clipPath id="SVGID_00000036229740227837205430000009182606903422373054_">
					<use xlink:href="#SVGID_00000070095606773459395250000002297564257748010417_"  style="overflow:visible;"/>
				</clipPath>
				<path style="clip-path:url(#SVGID_00000036229740227837205430000009182606903422373054_);fill:#FF325D;" d="M252.4,28.3
					c-0.4-0.4-1-0.4-1.4,0c-0.4,0.4-0.4,1,0,1.4l7.3,7.3l-7.3,7.3c-0.4,0.4-0.4,1,0,1.4c0.4,0.4,1,0.4,1.4,0l8-8
					c0.4-0.4,0.4-1,0-1.4L252.4,28.3z"/>
			</g>
			<g>
				<defs>
					<rect id="SVGID_00000051380053335597959660000003200840657920803007_" x="-247.1" y="-450.8" width="981.6" height="981.6"/>
				</defs>
				<clipPath id="SVGID_00000008831632392096802350000016421329384917887112_">
					<use xlink:href="#SVGID_00000051380053335597959660000003200840657920803007_"  style="overflow:visible;"/>
				</clipPath>
				<path style="clip-path:url(#SVGID_00000008831632392096802350000016421329384917887112_);fill:#FF325D;" d="M249.1,26.1
					c-0.5-0.2-1.1,0-1.3,0.4l-10,20c-0.2,0.5,0,1.1,0.4,1.3c0.5,0.2,1.1,0,1.3-0.4l10-20C249.8,27,249.6,26.4,249.1,26.1"/>
			</g>
		</g>
	</g>
	<g id="SvgjsG7574" transform="matrix(2.5245441390026437,0,0,2.5245441390026437,184.82328268069955,0.20617100838150115)">
		<path class="st0" d="M104.1,20l-4.3-6l-1.7,2v4h-3V6h3v6.1l5.2-6.1h3.6l-5.3,6l5.9,8H104.1L104.1,20z M111.9,5.9v2.4H109V5.9
			H111.9z M111.9,9.6V20H109V9.6H111.9z M118.7,17.6c0.5,0,0.9-0.1,1.4-0.2v2.4c-0.4,0.2-1.1,0.3-2.1,0.3c-1.6,0-3-0.6-3-3.5V12
			h-1.5V9.6h1.5V7.2h2.9v2.4h2.2V12h-2.2v4.6C117.8,17.1,118,17.6,118.7,17.6L118.7,17.6z"/>
	</g>
</g>
</svg>
